<?xml version="1.0" encoding="UTF-8"?>
<svg id="Capa_1" xmlns="http://www.w3.org/2000/svg" version="1.1" viewBox="0 0 100 100">
  <!-- Generator: Adobe Illustrator 29.1.0, SVG Export Plug-In . SVG Version: 2.1.0 Build 54)  -->
  <defs>
    <style>
      .st0 {
        font-size: 6px;
      }

      .st0, .st1 {
        font-family: Helvetica, Helvetica;
        isolation: isolate;
      }

      .st2 {
        fill: none;
        stroke: #000;
        stroke-miterlimit: 10;
      }

      .st1 {
        fill: #fff;
        font-size: 15px;
      }

       path:hover{ fill:#2C64AD; }

    </style>
  </defs>
  <path d="M21.3,59.4v-19.7h2c4.7,0,7.3,3.1,7.3,6.4v9l3,3.2V18c0-3.3,2-5.4,4.7-5.4s4.5,2.1,4.5,5.4v31.5h2.8V11.7c0-3.2,1.8-5.3,4.7-5.3s4.4,2.1,4.4,5.3v37.8h2.8V16.2c0-3.2,2.1-5.2,4.8-5.2s4.4,2.1,4.4,5.3v33.2c-.1,0,2.7,0,2.7,0v-28.1c0-3.3,2.2-5.3,4.4-5.3,2.7,0,4.9,2.3,4.8,5.1,0,0,0,.1,0,.2l-.2,41.5c-.1,20.7-10.9,30.7-27.7,30.7s-29.4-13.2-29.4-34.2Z"/>
  <text class="st1" transform="translate(33.1 75)"><tspan x="0" y="0">PARE</tspan></text>
  <text class="st0" transform="translate(11 20)"><tspan x="0" y="0">MANO</tspan></text>
  <path class="st2" d="M18.7,22.9c0,5.2,4.2,9.4,9.4,9.4"/>
  <polygon points="31 32.6 26.5 30 26.5 35.1 31 32.6"/>
</svg>