<?xml version="1.0" encoding="UTF-8"?>
<svg id="Capa_2" data-name="Capa 2" xmlns="http://www.w3.org/2000/svg" viewBox="0 0 128.78 54.64">
  <defs>
    <style>
      .cls-1, .cls-2, .cls-3, .cls-4, .cls-5 {
        stroke: #453a36;
        stroke-miterlimit: 10;
      }

      .cls-1, .cls-2, .cls-3, .cls-5 {
        fill: none;
      }

      .cls-2, .cls-3 {
        opacity: .45;
      }

      .cls-2, .cls-5 {
        stroke-width: .35px;
      }

      .cls-3, .cls-4 {
        stroke-width: .25px;
      }

      .cls-6, .cls-4 {
        fill: #2c64ad;
      }

      .cls-7 {
        font-family: BarlowSemiCondensed-SemiBold, 'Barlow Semi Condensed';
        font-size: 8.09px;
        font-weight: 600;
      }

      .cls-7, .cls-8 {
        fill: #453a36;
      }

      .cls-4 {
        opacity: .25;
      }

      .cls-9 {
        opacity: .2;
      }

      .cls-10 {
        letter-spacing: -.02em;
      }

      .cls-11 {
        letter-spacing: -.04em;
      }
    </style>
  </defs>
  <g id="INFO">
    <g class="cls-9">
      <path class="cls-6" d="M124.3,25.89v-8.26h-11.18c-14.65-9.26-31.99-14.65-50.61-14.65S26.52,8.37,11.86,17.65v-.02H.17v14.39l1.88,2.02,12.13,13.06,6.61,7.12c10.99-10.08,25.64-16.24,41.72-16.24s30.91,6.24,41.92,16.43c10.67-10.82,20.18-20.52,24.1-24.67-1.37-1.33-2.79-2.6-4.24-3.84Z"/>
      <path class="cls-8" d="M104.44,54.57l-.09-.08c-11.42-10.57-26.28-16.4-41.84-16.4s-30.25,5.76-41.64,16.21l-.09.08-.08-.09L.05,32.06v-14.56h11.81C27.02,7.92,44.54,2.85,62.51,2.85s35.47,5.07,50.64,14.65h11.27v8.33c1.65,1.42,2.98,2.63,4.2,3.81l.09.09-.08.09c-3.45,3.65-11.56,11.95-24.11,24.67l-.08.09ZM62.51,37.85c15.58,0,30.46,5.82,41.92,16.38,12.39-12.57,20.44-20.81,23.93-24.5-1.2-1.16-2.52-2.35-4.15-3.75l-.04-.04v-8.19h-11.09l-.03-.02c-15.14-9.57-32.62-14.63-50.54-14.63S27.07,8.17,11.93,17.75l-.19.12v-.12H.3v14.21l20.5,22.07c11.42-10.44,26.24-16.19,41.72-16.19Z"/>
    </g>
    <path class="cls-5" d="M124.3,25.89v-8.26h-11.18c-14.65-9.26-31.99-14.65-50.61-14.65S26.52,8.37,11.86,17.65v-.02H.17v14.39l1.88,2.02,12.13,13.06,6.61,7.12c10.99-10.08,25.64-16.24,41.72-16.24s30.91,6.24,41.92,16.43c10.67-10.82,20.18-20.52,24.1-24.67-1.37-1.33-2.79-2.6-4.24-3.84Z"/>
    <line class="cls-1" x1="19.79" y1="13.13" x2="26.22" y2="10.17"/>
    <line class="cls-1" x1="38.89" y1="5.88" x2="45.81" y2="4.36"/>
    <line class="cls-1" x1="46.39" y1="40.03" x2="53.31" y2="38.51"/>
    <line class="cls-1" x1="105.21" y1="13.13" x2="98.78" y2="10.17"/>
    <line class="cls-1" x1="86.11" y1="5.88" x2="79.19" y2="4.36"/>
    <line class="cls-1" x1="58.71" y1="2.99" x2="65.79" y2="2.99"/>
    <line class="cls-1" x1="58.71" y1="37.92" x2="65.79" y2="37.92"/>
    <line class="cls-1" x1="78.1" y1="40.03" x2="71.19" y2="38.51"/>
    <polygon class="cls-4" points="25.54 38.14 14.18 47.1 12.98 45.81 24.53 36.76 23.51 35.09 24.99 34.17 26.98 37.64 25.82 38.56 25.54 38.14"/>
    <polygon class="cls-4" points="4.55 36.72 10.85 36.72 15.93 32.14 17.09 26.5 18.33 25.85 17.83 24.74 19.17 23.91 21.34 27.52 19.98 28.44 19.19 27.17 18.08 27.91 16.9 32.79 11.24 37.76 5.58 37.83 4.55 36.72"/>
    <polygon class="cls-4" points="106.32 43.45 107.46 41.96 99.65 36.56 100.64 34.71 99.29 33.93 97.94 36.35 90.63 32.87 90.06 34.14 98.31 38.16 98.76 37.62 106.32 43.45"/>
    <polygon class="cls-4" points="120.06 38.48 105.31 26.85 104.68 28.18 102.96 27.39 104.92 23.95 106.64 24.66 106.09 25.83 121.15 37.37 121.15 37.37 120.06 38.48"/>
    <path class="cls-2" d="M50.22,39.07c.24-1.4,1.13-2.6,2.38-3.24l.51,2.6"/>
    <path class="cls-2" d="M49.51,39.5c-.82-1.16-2.14-1.86-3.53-1.9l.63,2.45"/>
    <path class="cls-2" d="M23.26,11.23c-.07-1.42.54-2.78,1.61-3.68l1.06,2.42"/>
    <path class="cls-2" d="M22.6,11.73c-1.05-.96-2.49-1.36-3.86-1.1l1.13,2.25"/>
    <path class="cls-3" d="M42.75,4.78c.24-1.4,1.13-2.6,2.37-3.24l.51,2.6"/>
    <path class="cls-3" d="M41.85,4.95c-.81-1.16-2.13-1.87-3.52-1.92l.61,2.45"/>
    <path class="cls-3" d="M83.2,4.74c.83-1.16,2.15-1.85,3.54-1.88l-.67,2.56"/>
    <path class="cls-3" d="M82.29,4.64c-.28-1.39-1.2-2.57-2.46-3.17l-.42,2.49"/>
    <path class="cls-3" d="M102.58,11.43c1.09-.91,2.55-1.24,3.91-.92l-1.3,2.3"/>
    <path class="cls-3" d="M101.71,11.2c.03-1.42-.62-2.76-1.71-3.63l-.95,2.34"/>
    <path class="cls-3" d="M61.8,2.79c-.55-1.31-1.68-2.28-3.03-2.63l.08,2.52"/>
    <path class="cls-2" d="M62.64,37.87c.53-1.32,1.66-2.3,3.01-2.66l-.05,2.64"/>
    <path class="cls-2" d="M61.86,38.08c-.55-1.31-1.69-2.27-3.05-2.62l.09,2.52"/>
    <path class="cls-2" d="M75.1,39.03c.84-1.15,2.17-1.82,3.57-1.84l-.7,2.55"/>
    <path class="cls-2" d="M74.32,38.88c-.26-1.4-1.17-2.58-2.41-3.21l-.45,2.48"/>
    <text class="cls-7" transform="translate(53.06 22.94)"><tspan class="cls-11" x="0" y="0">F</tspan><tspan class="cls-10" x="3.62" y="0">oy</tspan><tspan x="10.9" y="0">er</tspan></text>
  </g>
</svg>
